<mxfile host="65bd71144e">
    <diagram id="cVkN8Byco3iN3xzHV7dE" name="Page-1">
        <mxGraphModel dx="738" dy="494" grid="1" gridSize="10" guides="1" tooltips="1" connect="1" arrows="1" fold="1" page="1" pageScale="1" pageWidth="850" pageHeight="1100" math="0" shadow="0">
            <root>
                <mxCell id="0"/>
                <mxCell id="1" parent="0"/>
                <mxCell id="2" value="" style="ellipse;html=1;shape=startState;fillColor=#000000;strokeColor=#ff0000;" vertex="1" parent="1">
                    <mxGeometry x="375" y="170" width="30" height="30" as="geometry"/>
                </mxCell>
                <mxCell id="3" value="" style="edgeStyle=orthogonalEdgeStyle;html=1;verticalAlign=bottom;endArrow=open;endSize=8;strokeColor=#ff0000;entryX=0.5;entryY=0;entryDx=0;entryDy=0;" edge="1" source="2" parent="1" target="5">
                    <mxGeometry relative="1" as="geometry">
                        <mxPoint x="365" y="280" as="targetPoint"/>
                    </mxGeometry>
                </mxCell>
                <mxCell id="4" value="" style="ellipse;html=1;shape=endState;fillColor=#000000;strokeColor=#ff0000;" vertex="1" parent="1">
                    <mxGeometry x="375" y="540" width="30" height="30" as="geometry"/>
                </mxCell>
                <mxCell id="5" value="Nhận thông tin đăng ký" style="rounded=1;whiteSpace=wrap;html=1;arcSize=40;fontColor=#000000;fillColor=#ffffc0;strokeColor=#ff0000;" vertex="1" parent="1">
                    <mxGeometry x="330" y="240" width="120" height="40" as="geometry"/>
                </mxCell>
                <mxCell id="6" value="" style="edgeStyle=orthogonalEdgeStyle;html=1;verticalAlign=bottom;endArrow=open;endSize=8;strokeColor=#ff0000;entryX=0.5;entryY=0;entryDx=0;entryDy=0;" edge="1" source="5" parent="1" target="10">
                    <mxGeometry relative="1" as="geometry">
                        <mxPoint x="250" y="400" as="targetPoint"/>
                    </mxGeometry>
                </mxCell>
                <mxCell id="7" value="" style="rhombus;whiteSpace=wrap;html=1;fillColor=#ffffc0;strokeColor=#ff0000;" vertex="1" parent="1">
                    <mxGeometry x="350" y="380" width="80" height="40" as="geometry"/>
                </mxCell>
                <mxCell id="8" value="no" style="edgeStyle=orthogonalEdgeStyle;html=1;align=left;verticalAlign=bottom;endArrow=open;endSize=8;strokeColor=#ff0000;entryX=0;entryY=0.5;entryDx=0;entryDy=0;" edge="1" source="7" parent="1" target="14">
                    <mxGeometry x="-1" relative="1" as="geometry">
                        <mxPoint x="540" y="400" as="targetPoint"/>
                    </mxGeometry>
                </mxCell>
                <mxCell id="9" value="yes" style="edgeStyle=orthogonalEdgeStyle;html=1;align=left;verticalAlign=top;endArrow=open;endSize=8;strokeColor=#ff0000;" edge="1" source="7" parent="1" target="12">
                    <mxGeometry x="-1" relative="1" as="geometry">
                        <mxPoint x="400" y="480" as="targetPoint"/>
                    </mxGeometry>
                </mxCell>
                <mxCell id="10" value="Kiểm tra thông tin đăng ký" style="rounded=1;whiteSpace=wrap;html=1;arcSize=40;fontColor=#000000;fillColor=#ffffc0;strokeColor=#ff0000;" vertex="1" parent="1">
                    <mxGeometry x="330" y="310" width="120" height="40" as="geometry"/>
                </mxCell>
                <mxCell id="11" value="" style="edgeStyle=orthogonalEdgeStyle;html=1;verticalAlign=bottom;endArrow=open;endSize=8;strokeColor=#ff0000;entryX=0.5;entryY=0;entryDx=0;entryDy=0;" edge="1" source="10" parent="1" target="7">
                    <mxGeometry relative="1" as="geometry">
                        <mxPoint x="260" y="570" as="targetPoint"/>
                    </mxGeometry>
                </mxCell>
                <mxCell id="12" value="Thông báo đăng ký thành công" style="rounded=1;whiteSpace=wrap;html=1;arcSize=40;fontColor=#000000;fillColor=#ffffc0;strokeColor=#ff0000;" vertex="1" parent="1">
                    <mxGeometry x="330" y="460" width="120" height="40" as="geometry"/>
                </mxCell>
                <mxCell id="13" value="" style="edgeStyle=orthogonalEdgeStyle;html=1;verticalAlign=bottom;endArrow=open;endSize=8;strokeColor=#ff0000;" edge="1" source="12" parent="1" target="4">
                    <mxGeometry relative="1" as="geometry">
                        <mxPoint x="170" y="560" as="targetPoint"/>
                    </mxGeometry>
                </mxCell>
                <mxCell id="14" value="Thông báo đăng ký thất bại" style="rounded=1;whiteSpace=wrap;html=1;arcSize=40;fontColor=#000000;fillColor=#ffffc0;strokeColor=#ff0000;" vertex="1" parent="1">
                    <mxGeometry x="470" y="380" width="120" height="40" as="geometry"/>
                </mxCell>
                <mxCell id="15" value="" style="edgeStyle=orthogonalEdgeStyle;html=1;verticalAlign=bottom;endArrow=open;endSize=8;strokeColor=#ff0000;entryX=0;entryY=0.5;entryDx=0;entryDy=0;exitX=1;exitY=0.5;exitDx=0;exitDy=0;" edge="1" source="14" parent="1" target="16">
                    <mxGeometry relative="1" as="geometry">
                        <mxPoint x="610" y="500" as="targetPoint"/>
                        <Array as="points">
                            <mxPoint x="620" y="400"/>
                            <mxPoint x="620" y="400"/>
                        </Array>
                    </mxGeometry>
                </mxCell>
                <mxCell id="16" value="" style="rhombus;whiteSpace=wrap;html=1;fillColor=#ffffc0;strokeColor=#ff0000;" vertex="1" parent="1">
                    <mxGeometry x="630" y="380" width="80" height="40" as="geometry"/>
                </mxCell>
                <mxCell id="17" value="thoát" style="edgeStyle=orthogonalEdgeStyle;html=1;align=left;verticalAlign=bottom;endArrow=open;endSize=8;strokeColor=#ff0000;entryX=1;entryY=0.5;entryDx=0;entryDy=0;" edge="1" source="16" parent="1" target="4">
                    <mxGeometry x="-0.8" relative="1" as="geometry">
                        <mxPoint x="850" y="290" as="targetPoint"/>
                        <Array as="points">
                            <mxPoint x="670" y="555"/>
                        </Array>
                        <mxPoint as="offset"/>
                    </mxGeometry>
                </mxCell>
                <mxCell id="18" value="nhập lại" style="edgeStyle=orthogonalEdgeStyle;html=1;align=left;verticalAlign=top;endArrow=open;endSize=8;strokeColor=#ff0000;entryX=1;entryY=0.5;entryDx=0;entryDy=0;" edge="1" source="16" parent="1" target="5">
                    <mxGeometry x="-0.7059" relative="1" as="geometry">
                        <mxPoint x="710" y="370" as="targetPoint"/>
                        <Array as="points">
                            <mxPoint x="670" y="260"/>
                        </Array>
                        <mxPoint as="offset"/>
                    </mxGeometry>
                </mxCell>
            </root>
        </mxGraphModel>
    </diagram>
</mxfile>